<?xml version="1.0" standalone="no"?>
<svg xmlns:xlink="http://www.w3.org/1999/xlink" id="wave" style="transform:rotate(0deg); transition: 0.3s" viewBox="0 0 1440 490" version="1.1" xmlns="http://www.w3.org/2000/svg"><defs><linearGradient id="sw-gradient-0" x1="0" x2="0" y1="1" y2="0"><stop stop-color="rgba(243, 106, 62, 1)" offset="0%"/><stop stop-color="rgba(255, 179, 11, 1)" offset="100%"/></linearGradient></defs><path style="transform:translate(0, 0px); opacity:1" fill="url(#sw-gradient-0)" d="M0,98L26.7,98C53.3,98,107,98,160,106.2C213.3,114,267,131,320,163.3C373.3,196,427,245,480,228.7C533.3,212,587,131,640,81.7C693.3,33,747,16,800,40.8C853.3,65,907,131,960,147C1013.3,163,1067,131,1120,171.5C1173.3,212,1227,327,1280,375.7C1333.3,425,1387,408,1440,359.3C1493.3,310,1547,229,1600,179.7C1653.3,131,1707,114,1760,89.8C1813.3,65,1867,33,1920,32.7C1973.3,33,2027,65,2080,81.7C2133.3,98,2187,98,2240,114.3C2293.3,131,2347,163,2400,204.2C2453.3,245,2507,294,2560,302.2C2613.3,310,2667,278,2720,285.8C2773.3,294,2827,343,2880,310.3C2933.3,278,2987,163,3040,130.7C3093.3,98,3147,147,3200,147C3253.3,147,3307,98,3360,81.7C3413.3,65,3467,82,3520,130.7C3573.3,180,3627,261,3680,253.2C3733.3,245,3787,147,3813,98L3840,49L3840,490L3813.3,490C3786.7,490,3733,490,3680,490C3626.7,490,3573,490,3520,490C3466.7,490,3413,490,3360,490C3306.7,490,3253,490,3200,490C3146.7,490,3093,490,3040,490C2986.7,490,2933,490,2880,490C2826.7,490,2773,490,2720,490C2666.7,490,2613,490,2560,490C2506.7,490,2453,490,2400,490C2346.7,490,2293,490,2240,490C2186.7,490,2133,490,2080,490C2026.7,490,1973,490,1920,490C1866.7,490,1813,490,1760,490C1706.7,490,1653,490,1600,490C1546.7,490,1493,490,1440,490C1386.7,490,1333,490,1280,490C1226.7,490,1173,490,1120,490C1066.7,490,1013,490,960,490C906.7,490,853,490,800,490C746.7,490,693,490,640,490C586.7,490,533,490,480,490C426.7,490,373,490,320,490C266.7,490,213,490,160,490C106.7,490,53,490,27,490L0,490Z"/></svg>